<svg id="レイヤー_1" data-name="レイヤー 1" xmlns="http://www.w3.org/2000/svg" viewBox="0 0 284 34"><defs><style>.cls-1{fill:#fff;}</style></defs><path class="cls-1" d="M21.34,23.17a2.82,2.82,0,0,0-1.09-2.38,13,13,0,0,0-3.92-1.7,18.38,18.38,0,0,1-4.51-1.9,6,6,0,0,1-3.21-5.25,5.71,5.71,0,0,1,2.31-4.67,9.33,9.33,0,0,1,6-1.84,10.14,10.14,0,0,1,4.36.9,7.15,7.15,0,0,1,3,2.57,6.53,6.53,0,0,1,1.1,3.7H21.34a3.69,3.69,0,0,0-1.15-2.88,4.78,4.78,0,0,0-3.3-1,5,5,0,0,0-3.1.85,2.85,2.85,0,0,0-1.1,2.38,2.58,2.58,0,0,0,1.19,2.16,13.82,13.82,0,0,0,3.93,1.67,18.11,18.11,0,0,1,4.4,1.85A7,7,0,0,1,24.64,20a6.18,6.18,0,0,1,.78,3.15,5.57,5.57,0,0,1-2.25,4.66,9.72,9.72,0,0,1-6.1,1.74,11.41,11.41,0,0,1-4.68-.95A7.87,7.87,0,0,1,9.07,26a6.48,6.48,0,0,1-1.18-3.87H12a3.8,3.8,0,0,0,1.32,3.1,5.8,5.8,0,0,0,3.79,1.09,5,5,0,0,0,3.2-.86A2.78,2.78,0,0,0,21.34,23.17Z"/><path class="cls-1" d="M32.3,11.78l.11,1.82a6.26,6.26,0,0,1,5-2.14q3.5,0,4.78,2.67a6.19,6.19,0,0,1,5.35-2.67,5.45,5.45,0,0,1,4.3,1.59,7,7,0,0,1,1.44,4.71V29.21H49.39V17.87a3.46,3.46,0,0,0-.72-2.43,3.16,3.16,0,0,0-2.4-.78,3.28,3.28,0,0,0-2.19.72,3.82,3.82,0,0,0-1.18,1.88l0,12H39V17.74a2.79,2.79,0,0,0-3.14-3.08,3.46,3.46,0,0,0-3.34,1.92V29.21H28.61V11.78Z"/><path class="cls-1" d="M67.75,29.21a5.4,5.4,0,0,1-.45-1.62,6.59,6.59,0,0,1-8.87.45,4.83,4.83,0,0,1-1.66-3.71,5,5,0,0,1,2.07-4.28,10.08,10.08,0,0,1,5.93-1.49h2.4V17.42a3.08,3.08,0,0,0-.76-2.17,3,3,0,0,0-2.31-.81,3.42,3.42,0,0,0-2.19.67,2.05,2.05,0,0,0-.85,1.7H57.14a4.4,4.4,0,0,1,1-2.69,6.37,6.37,0,0,1,2.59-1.95,9,9,0,0,1,3.65-.71A7.28,7.28,0,0,1,69.21,13a5.44,5.44,0,0,1,1.87,4.32v7.87a8.91,8.91,0,0,0,.66,3.75v.27Zm-4.31-2.82a4.41,4.41,0,0,0,2.19-.56,3.86,3.86,0,0,0,1.54-1.51V21H65.06a5.76,5.76,0,0,0-3.28.76,2.43,2.43,0,0,0-1.09,2.14,2.3,2.3,0,0,0,.75,1.8A2.92,2.92,0,0,0,63.44,26.39Z"/><path class="cls-1" d="M79.35,29.21H75.43V4.46h3.92Z"/><path class="cls-1" d="M88.6,29.21H84.68V4.46H88.6Z"/><path class="cls-1" d="M110.08,20.19h-4.54v9h-4.08V5.75h8.25A9.58,9.58,0,0,1,116,7.58a6.43,6.43,0,0,1,2.2,5.27,6.58,6.58,0,0,1-1.13,3.94,7.22,7.22,0,0,1-3.17,2.45L119.15,29v.21h-4.36Zm-4.54-3.29h4.18a4.65,4.65,0,0,0,3.23-1A3.63,3.63,0,0,0,114.11,13,3.88,3.88,0,0,0,113,10.1,4.59,4.59,0,0,0,109.84,9h-4.3Z"/><path class="cls-1" d="M120.94,20.34a10.25,10.25,0,0,1,1-4.62,7.36,7.36,0,0,1,2.85-3.16,8.07,8.07,0,0,1,4.22-1.1,7.61,7.61,0,0,1,5.73,2.27,8.91,8.91,0,0,1,2.37,6l0,.91a10.37,10.37,0,0,1-1,4.61,7.28,7.28,0,0,1-2.84,3.14,8,8,0,0,1-4.26,1.12,7.54,7.54,0,0,1-5.9-2.46,9.4,9.4,0,0,1-2.22-6.55Zm3.92.33A7.05,7.05,0,0,0,126,24.89a3.88,3.88,0,0,0,6.18,0,7.79,7.79,0,0,0,1.1-4.52,6.9,6.9,0,0,0-1.14-4.19,3.83,3.83,0,0,0-6.13,0A7.63,7.63,0,0,0,124.86,20.67Z"/><path class="cls-1" d="M139.73,20.34a10.38,10.38,0,0,1,1-4.62,7.44,7.44,0,0,1,2.86-3.16,8.07,8.07,0,0,1,4.22-1.1,7.57,7.57,0,0,1,5.72,2.27,8.92,8.92,0,0,1,2.38,6l0,.91a10.37,10.37,0,0,1-1,4.61,7.28,7.28,0,0,1-2.84,3.14,8,8,0,0,1-4.26,1.12,7.57,7.57,0,0,1-5.91-2.46,9.44,9.44,0,0,1-2.21-6.55Zm3.91.33a7,7,0,0,0,1.12,4.22,3.62,3.62,0,0,0,3.09,1.52,3.57,3.57,0,0,0,3.08-1.55A7.71,7.71,0,0,0,152,20.34a6.9,6.9,0,0,0-1.14-4.19,3.83,3.83,0,0,0-6.13,0A7.63,7.63,0,0,0,143.64,20.67Z"/><path class="cls-1" d="M162.93,11.78,163,13.6a6.28,6.28,0,0,1,5-2.14q3.5,0,4.79,2.67a6.18,6.18,0,0,1,5.35-2.67,5.44,5.44,0,0,1,4.29,1.59,7,7,0,0,1,1.44,4.71V29.21H180V17.87a3.41,3.41,0,0,0-.73-2.43,3.15,3.15,0,0,0-2.4-.78,3.24,3.24,0,0,0-2.18.72,3.77,3.77,0,0,0-1.19,1.88l0,12h-3.92V17.74a2.79,2.79,0,0,0-3.14-3.08,3.43,3.43,0,0,0-3.33,1.92V29.21h-3.92V11.78Z"/><path class="cls-1" d="M196.56,29.21V5.75h6.93A10.93,10.93,0,0,1,209,7.14a9.44,9.44,0,0,1,3.73,3.93,12.49,12.49,0,0,1,1.32,5.83v1.18A12.42,12.42,0,0,1,212.73,24a9.35,9.35,0,0,1-3.79,3.89,11.29,11.29,0,0,1-5.63,1.37ZM200.64,9V26h2.65a6.14,6.14,0,0,0,4.93-2A8.8,8.8,0,0,0,210,18.19v-1.3a9,9,0,0,0-1.66-5.84,5.91,5.91,0,0,0-4.82-2Z"/><path class="cls-1" d="M217.75,7.25a2.09,2.09,0,0,1,.57-1.5,2.57,2.57,0,0,1,3.28,0,2.06,2.06,0,0,1,.58,1.5,2,2,0,0,1-.58,1.48,2.61,2.61,0,0,1-3.28,0A2.06,2.06,0,0,1,217.75,7.25Zm4.16,22H218V11.78h3.92Z"/><path class="cls-1" d="M236.11,24.48a1.78,1.78,0,0,0-.87-1.6,9.29,9.29,0,0,0-2.86-1,14.2,14.2,0,0,1-3.33-1.06c-2-.94-2.93-2.31-2.93-4.11A4.64,4.64,0,0,1,228,13a7.48,7.48,0,0,1,4.83-1.51A7.82,7.82,0,0,1,237.9,13a4.91,4.91,0,0,1,1.93,4h-3.92a2.41,2.41,0,0,0-.84-1.88,3.21,3.21,0,0,0-2.22-.75,3.44,3.44,0,0,0-2.1.6,1.88,1.88,0,0,0-.82,1.59,1.6,1.6,0,0,0,.76,1.4,10.34,10.34,0,0,0,3.06,1,14.48,14.48,0,0,1,3.62,1.21,5.12,5.12,0,0,1,1.95,1.68,4.35,4.35,0,0,1,.64,2.39,4.54,4.54,0,0,1-2,3.81,8.35,8.35,0,0,1-5.11,1.46,9,9,0,0,1-3.82-.78,6.21,6.21,0,0,1-2.61-2.12,5.08,5.08,0,0,1-.93-2.92h3.8a2.75,2.75,0,0,0,1,2.13,4.09,4.09,0,0,0,2.57.75A4,4,0,0,0,235.3,26,1.83,1.83,0,0,0,236.11,24.48Z"/><path class="cls-1" d="M250.53,26.41a3.53,3.53,0,0,0,2.43-.85,2.94,2.94,0,0,0,1-2.11h3.69a5.74,5.74,0,0,1-1,3,6.68,6.68,0,0,1-2.58,2.23,7.69,7.69,0,0,1-3.51.83,7.45,7.45,0,0,1-5.81-2.37,9.44,9.44,0,0,1-2.14-6.54v-.41a9.24,9.24,0,0,1,2.13-6.37,7.38,7.38,0,0,1,5.8-2.39,7.17,7.17,0,0,1,5.07,1.81A6.5,6.5,0,0,1,257.68,18H254a3.54,3.54,0,0,0-1-2.46,3.29,3.29,0,0,0-2.44-1A3.46,3.46,0,0,0,247.59,16a7.08,7.08,0,0,0-1,4.18v.63a7.17,7.17,0,0,0,1,4.23A3.44,3.44,0,0,0,250.53,26.41Z"/><path class="cls-1" d="M259.91,20.34a10.25,10.25,0,0,1,1-4.62,7.49,7.49,0,0,1,2.85-3.16,8.1,8.1,0,0,1,4.22-1.1,7.58,7.58,0,0,1,5.73,2.27,8.92,8.92,0,0,1,2.38,6v.91a10.37,10.37,0,0,1-1,4.61,7.26,7.26,0,0,1-2.83,3.14A8,8,0,0,1,268,29.54a7.57,7.57,0,0,1-5.91-2.46,9.4,9.4,0,0,1-2.21-6.55Zm3.91.33a7.05,7.05,0,0,0,1.11,4.22,3.62,3.62,0,0,0,3.1,1.52,3.57,3.57,0,0,0,3.08-1.55,7.71,7.71,0,0,0,1.11-4.52,6.9,6.9,0,0,0-1.14-4.19,3.83,3.83,0,0,0-6.13,0A7.63,7.63,0,0,0,263.82,20.67Z"/></svg>